<svg width="406" height="359" viewBox="0 0 406 359" fill="none" xmlns="http://www.w3.org/2000/svg">
<path d="M108 281.072C108 278.744 99.1496 276.696 85.7597 275.511C96.3682 275.263 104.231 274.362 104.231 273.289C104.231 272.025 93.322 271 79.8654 271C66.4088 271 55.5 272.025 55.5 273.289C55.5 273.706 56.6882 274.097 58.7631 274.434C31.8104 274.451 10 277.417 10 281.072C10 282.975 15.9091 284.69 25.3746 285.901C19.6249 286.319 15.9231 286.974 15.9231 287.711C15.9231 288.975 26.8318 290 40.2885 290C53.7451 290 64.6539 288.975 64.6539 287.711C64.6533 287.696 64.6513 287.681 64.6479 287.667C89.049 287.287 108 284.48 108 281.072Z" fill="#F2F2F2"/>
<path opacity="0.1" d="M66.9012 276C66.2597 276 65.626 276.005 65 276.016C75.2081 276.183 83.1975 277.679 83.1975 279.5C83.1975 281.321 75.2081 282.817 65 282.984C65.6262 282.994 66.2599 283 66.9012 283C78.0015 283 87 281.433 87 279.5C87 277.567 78.0015 276 66.9012 276Z" fill="black"/>
<path opacity="0.1" d="M51.0988 278C51.7403 278 52.374 278.005 53 278.016C42.7919 278.183 34.8025 279.679 34.8025 281.5C34.8025 283.321 42.7919 284.817 53 284.984C52.3738 284.994 51.7401 285 51.0988 285C39.9985 285 31 283.433 31 281.5C31 279.567 39.9985 278 51.0988 278Z" fill="black"/>
<path d="M42 281C42 281 44.1875 270.111 59.5 273.741C74.8125 277.37 77 281 77 281H42Z" fill="#3F3D56"/>
<path d="M44.2577 262.949C47.8731 270.681 55.5462 274 55.5462 274C55.5462 274 57.3576 264.783 53.7423 257.051C50.1269 249.319 42.4538 246 42.4538 246C42.4538 246 40.6424 255.217 44.2577 262.949Z" fill="#3F3D56"/>
<path d="M46.8202 260.172C53.4476 264.704 56 273.706 56 273.706C56 273.706 47.8073 275.359 41.1798 270.828C34.5524 266.296 32 257.294 32 257.294C32 257.294 40.1927 255.641 46.8202 260.172Z" fill="#60D06E"/>
<path d="M146 139.291C146 200.595 113.317 222 73 222C32.6832 222 0 200.595 0 139.291C0 77.9879 73 0 73 0C73 0 146 77.9879 146 139.291Z" fill="#7DF18B"/>
<path d="M70.2435 212.691L70.9882 161.369L102 97.8756L71.1052 153.318L71.4399 130.241L92.8135 84.3047L71.5286 124.134L72.1315 82.6303L95.0181 46.0592L72.2259 76.1036L73 0.5L70.2368 100.748L70.431 96.5917L47.1618 56.7313L70.0582 104.57L67.89 150.923L67.8253 149.693L41 107.746L67.7442 154.039L67.4729 159.836L67.4245 159.923L67.4467 160.399L61.9458 278H69.2953L70.177 217.257L96.8555 171.077L70.2435 212.691Z" fill="#3F3D56"/>
<path d="M119.956 237L116.01 243.961C116.01 243.961 115.82 245.724 117.134 244.657C118.448 243.589 121 237.377 121 237.377L119.956 237Z" fill="#2F2E41"/>
<path d="M151 170.019L160.956 152.234C161.6 151.057 162.497 150.062 163.571 149.331C164.645 148.599 165.867 148.152 167.135 148.025C169.155 147.85 171.283 148.531 172.343 151.587C174.698 158.377 169.966 163.489 169.966 163.489C169.966 163.489 167.897 164.09 168.007 162.019L170.376 157.594C170.376 157.594 172.343 151.587 166.839 151.148C161.335 150.709 153.469 171 153.469 171L151 170.019Z" fill="#2F2E41"/>
<path d="M157 172.424L151.034 178.407C151.024 180.971 149.071 186.155 146.179 192.434C145.959 192.917 145.733 193.406 145.5 193.9C143.782 197.553 141.787 201.519 139.698 205.524C139.468 205.966 139.237 206.408 139.003 206.851C136.666 211.294 134.237 215.749 131.968 219.828C131.732 220.255 131.497 220.674 131.266 221.096C128.648 225.778 126.288 229.896 124.583 232.837C124.332 233.272 124.094 233.678 123.874 234.062C122.603 236.247 121.844 237.526 121.844 237.526C121.393 237.855 120.867 238.02 120.334 237.998C120.138 237.975 119.95 237.896 119.786 237.767C119.623 237.639 119.489 237.467 119.397 237.264C118.844 236.183 119.03 234.309 119.03 234.309C119.437 231.124 120.697 227.109 122.476 222.688C122.688 222.156 122.91 221.618 123.136 221.075C124.948 216.766 127.197 212.132 129.596 207.537C129.828 207.094 130.061 206.652 130.293 206.209C132.624 201.802 135.065 197.464 137.362 193.515C137.603 193.108 137.839 192.705 138.072 192.304C140.33 188.457 142.416 185.03 144.081 182.348C144.331 181.944 144.569 181.561 144.799 181.195C146.702 178.147 147.895 176.318 147.895 176.318L149.252 167L151.85 168.818L153.851 170.219L157 172.424Z" fill="#3F3D56"/>
<path d="M122.626 221L124 232.774C123.761 233.209 123.535 233.616 123.327 234L122 222.615C122.201 222.083 122.411 221.544 122.626 221Z" fill="#60D06E"/>
<path d="M130.588 206L132 219.723C131.801 220.153 131.603 220.575 131.408 221L130 207.338C130.196 206.892 130.392 206.446 130.588 206Z" fill="#60D06E"/>
<path d="M138.608 191L140 204.632C139.803 205.087 139.605 205.543 139.405 206L138 192.249C138.206 191.829 138.408 191.414 138.608 191Z" fill="#60D06E"/>
<path d="M145.342 181L146 192.5C145.895 192.995 145.787 193.495 145.676 194L145 182.179C145.119 181.766 145.232 181.375 145.342 181Z" fill="#60D06E"/>
<path d="M406 324.072C406 321.744 397.15 319.696 383.76 318.511C394.368 318.263 402.231 317.362 402.231 316.289C402.231 315.025 391.322 314 377.865 314C364.409 314 353.5 315.025 353.5 316.289C353.5 316.706 354.688 317.097 356.763 317.434C329.81 317.451 308 320.417 308 324.072C308 325.975 313.909 327.69 323.375 328.901C317.625 329.319 313.923 329.974 313.923 330.711C313.923 331.975 324.832 333 338.288 333C351.745 333 362.654 331.975 362.654 330.711C362.653 330.696 362.651 330.681 362.648 330.667C387.049 330.287 406 327.48 406 324.072Z" fill="#F2F2F2"/>
<path opacity="0.1" d="M364.901 319C364.26 319 363.626 319.005 363 319.016C373.208 319.183 381.198 320.679 381.198 322.5C381.198 324.321 373.208 325.817 363 325.984C363.626 325.994 364.26 326 364.901 326C376.001 326 385 324.433 385 322.5C385 320.567 376.001 319 364.901 319Z" fill="black"/>
<path opacity="0.1" d="M349.099 321C349.74 321 350.374 321.005 351 321.016C340.792 321.183 332.802 322.679 332.802 324.5C332.802 326.321 340.792 327.817 351 327.984C350.374 327.994 349.74 328 349.099 328C337.999 328 329 326.433 329 324.5C329 322.567 337.999 321 349.099 321Z" fill="black"/>
<path d="M102 350.072C102 347.744 93.1496 345.696 79.7597 344.511C90.3682 344.263 98.2308 343.362 98.2308 342.289C98.2308 341.025 87.322 340 73.8654 340C60.4088 340 49.5 341.025 49.5 342.289C49.5 342.706 50.6882 343.097 52.7631 343.434C25.8104 343.451 4 346.417 4 350.072C4 351.975 9.90913 353.69 19.3746 354.901C13.6249 355.319 9.92308 355.974 9.92308 356.711C9.92308 357.975 20.8318 359 34.2885 359C47.7451 359 58.6539 357.975 58.6539 356.711C58.6533 356.696 58.6513 356.681 58.6479 356.667C83.049 356.287 102 353.48 102 350.072Z" fill="#F2F2F2"/>
<path opacity="0.1" d="M60.9012 345C60.2597 345 59.626 345.005 59 345.016C69.2081 345.183 77.1975 346.679 77.1975 348.5C77.1975 350.321 69.2081 351.817 59 351.984C59.6262 351.994 60.2599 352 60.9012 352C72.0015 352 81 350.433 81 348.5C81 346.567 72.0015 345 60.9012 345Z" fill="black"/>
<path opacity="0.1" d="M44.1852 347C44.7975 347 45.4025 347.005 46 347.016C36.2559 347.183 28.6296 348.679 28.6296 350.5C28.6296 352.321 36.2559 353.817 46 353.984C45.4023 353.994 44.7974 354 44.1852 354C33.5895 354 25 352.433 25 350.5C25 348.567 33.5895 347 44.1852 347Z" fill="black"/>
<path d="M278 310.735C278 305.71 263.46 301.291 241.462 298.734C258.891 298.199 271.808 296.256 271.808 293.94C271.808 291.212 253.886 289 231.779 289C209.672 289 191.75 291.212 191.75 293.94C191.75 294.84 193.702 295.684 197.111 296.411C152.831 296.448 117 302.846 117 310.735C117 314.84 126.708 318.542 142.258 321.154C132.812 322.058 126.731 323.471 126.731 325.06C126.731 327.788 144.652 330 166.76 330C188.867 330 206.788 327.788 206.788 325.06C206.788 325.028 206.784 324.996 206.779 324.965C246.866 324.146 278 318.088 278 310.735Z" fill="#F2F2F2"/>
<path opacity="0.1" d="M240.469 305C239.973 305 239.484 305.005 239 305.014C246.888 305.157 253.062 306.439 253.062 308C253.062 309.561 246.888 310.843 239 310.986C239.484 310.995 239.974 311 240.469 311C249.047 311 256 309.657 256 308C256 306.343 249.047 305 240.469 305Z" fill="black"/>
<path opacity="0.1" d="M243.469 291C242.973 291 242.484 291.005 242 291.014C249.888 291.157 256.062 292.439 256.062 294C256.062 295.561 249.888 296.843 242 296.986C242.484 296.995 242.974 297 243.469 297C252.047 297 259 295.657 259 294C259 292.343 252.047 291 243.469 291Z" fill="black"/>
<path opacity="0.1" d="M161.531 305C162.027 305 162.516 305.005 163 305.014C155.112 305.157 148.938 306.439 148.938 308C148.938 309.561 155.112 310.843 163 310.986C162.516 310.995 162.026 311 161.531 311C152.953 311 146 309.657 146 308C146 306.343 152.953 305 161.531 305Z" fill="black"/>
<path opacity="0.1" d="M221.444 291C221.969 291 222.488 291.005 223 291.014C214.648 291.157 208.111 292.439 208.111 294C208.111 295.561 214.648 296.843 223 296.986C222.488 296.995 221.969 297 221.444 297C212.362 297 205 295.657 205 294C205 292.343 212.362 291 221.444 291Z" fill="black"/>
<path opacity="0.1" d="M226.591 316C223.086 316.89 213.404 317.53 202 317.53C190.596 317.53 180.914 316.89 177.409 316C176.5 316.231 176 316.478 176 316.735C176 317.986 187.641 319 202 319C216.359 319 228 317.986 228 316.735C228 316.478 227.5 316.231 226.591 316Z" fill="black"/>
<path opacity="0.1" d="M228.591 304C225.086 303.407 215.404 302.98 204 302.98C192.596 302.98 182.914 303.407 179.409 304C178.5 303.846 178 303.681 178 303.51C178 302.676 189.641 302 204 302C218.359 302 230 302.676 230 303.51C230 303.681 229.5 303.846 228.591 304Z" fill="black"/>
<path opacity="0.1" d="M175.296 327C173.543 327.593 168.702 328.02 163 328.02C157.298 328.02 152.457 327.593 150.704 327C150.25 327.154 150 327.319 150 327.49C150 328.324 155.82 329 163 329C170.18 329 176 328.324 176 327.49C176 327.319 175.75 327.154 175.296 327Z" fill="black"/>
<path d="M357.386 324L356.622 323.541C366.553 301.228 361.242 272.252 355.039 251.873C350.827 238.175 345.454 224.998 339 212.534L339.727 212C346.215 224.527 351.616 237.771 355.85 251.539C362.11 272.104 367.458 301.37 357.386 324Z" fill="#3F3D56"/>
<path d="M365.456 212.426L359.723 247.692L360.592 247.871L366.325 212.605L365.456 212.426Z" fill="#3F3D56"/>
<path d="M327.332 242.472L326.685 243.149L356.291 278.91L356.939 278.233L327.332 242.472Z" fill="#3F3D56"/>
<path d="M380.558 281.755L365.54 305.104L366.257 305.686L381.274 282.337L380.558 281.755Z" fill="#3F3D56"/>
<path d="M367.5 203C369.985 203 372 200.761 372 198C372 195.239 369.985 193 367.5 193C365.015 193 363 195.239 363 198C363 200.761 365.015 203 367.5 203Z" fill="#60D06E"/>
<path d="M320.5 241C322.985 241 325 238.761 325 236C325 233.239 322.985 231 320.5 231C318.015 231 316 233.239 316 236C316 238.761 318.015 241 320.5 241Z" fill="#3F3D56"/>
<path d="M339.5 246C341.985 246 344 243.761 344 241C344 238.239 341.985 236 339.5 236C337.015 236 335 238.239 335 241C335 243.761 337.015 246 339.5 246Z" fill="#3F3D56"/>
<path d="M330.5 266C332.985 266 335 263.761 335 261C335 258.239 332.985 256 330.5 256C328.015 256 326 258.239 326 261C326 263.761 328.015 266 330.5 266Z" fill="#60D06E"/>
<path d="M385.5 278C387.985 278 390 275.761 390 273C390 270.239 387.985 268 385.5 268C383.015 268 381 270.239 381 273C381 275.761 383.015 278 385.5 278Z" fill="#3F3D56"/>
<path d="M370.5 284C372.985 284 375 281.761 375 279C375 276.239 372.985 274 370.5 274C368.015 274 366 276.239 366 279C366 281.761 368.015 284 370.5 284Z" fill="#3F3D56"/>
<path d="M381.5 299C383.985 299 386 296.761 386 294C386 291.239 383.985 289 381.5 289C379.015 289 377 291.239 377 294C377 296.761 379.015 299 381.5 299Z" fill="#3F3D56"/>
<path d="M335.5 209C337.985 209 340 206.761 340 204C340 201.239 337.985 199 335.5 199C333.015 199 331 201.239 331 204C331 206.761 333.015 209 335.5 209Z" fill="#3F3D56"/>
<path d="M195.5 90C201.851 90 207 84.4036 207 77.5C207 70.5964 201.851 65 195.5 65C189.149 65 184 70.5964 184 77.5C184 84.4036 189.149 90 195.5 90Z" fill="#2F2E41"/>
<path d="M189.051 85.7746C189.051 85.7746 190.047 98.529 189.051 101.856C188.055 105.184 202 100.193 202 100.193C202 100.193 196.522 85.7746 197.518 84.3882C198.514 83.0018 189.051 85.7746 189.051 85.7746Z" fill="#FFB8B8"/>
<path d="M188.787 179L188.047 219.267C188.047 219.267 187.553 222.828 189.773 226.937C191.993 231.046 201.86 262 201.86 262L210 257.069L209.26 244.743C209.26 244.743 207.78 227.759 202.847 221.459L210 182.835L188.787 179Z" fill="#FFB8B8"/>
<path opacity="0.1" d="M188.787 179L188.047 219.267C188.047 219.267 187.553 222.828 189.773 226.937C191.993 231.046 201.86 262 201.86 262L210 257.069L209.26 244.743C209.26 244.743 207.78 227.759 202.847 221.459L210 182.835L188.787 179Z" fill="black"/>
<path d="M210.59 251C210.59 251 189.908 255.642 193.396 263.015C196.885 270.387 203.364 285.679 203.364 285.679C203.364 285.679 205.108 295.236 201.869 297.147C198.629 299.059 191.901 310.527 198.38 309.981C204.859 309.435 211.088 301.516 211.088 301.516L216.57 293.871L217.567 295.782L227.534 286.771C227.534 286.771 231.272 278.033 217.567 273.664L210.59 251Z" fill="#2F2E41"/>
<path opacity="0.1" d="M210.59 251C210.59 251 189.908 255.642 193.396 263.015C196.885 270.387 203.364 285.679 203.364 285.679C203.364 285.679 205.108 295.236 201.869 297.147C198.629 299.059 191.901 310.527 198.38 309.981C204.859 309.435 211.088 301.516 211.088 301.516L216.57 293.871L217.567 295.782L227.534 286.771C227.534 286.771 231.272 278.033 217.567 273.664L210.59 251Z" fill="black"/>
<path d="M183.787 180L183.047 220.267C183.047 220.267 182.553 223.828 184.773 227.937C186.993 232.046 196.86 263 196.86 263L205 258.069L204.26 245.743C204.26 245.743 202.78 228.759 197.847 222.459L205 183.835L183.787 180Z" fill="#FFB8B8"/>
<path d="M206.59 252C206.59 252 185.908 256.642 189.396 264.015C192.885 271.387 199.364 286.679 199.364 286.679C199.364 286.679 201.108 296.236 197.869 298.147C194.629 300.059 187.901 311.527 194.38 310.981C200.859 310.435 207.088 302.516 207.088 302.516L212.57 294.871L213.567 296.782L223.534 287.771C223.534 287.771 227.272 279.033 213.567 274.664L206.59 252Z" fill="#2F2E41"/>
<path d="M192.5 93C197.747 93 202 88.299 202 82.5C202 76.701 197.747 72 192.5 72C187.253 72 183 76.701 183 82.5C183 88.299 187.253 93 192.5 93Z" fill="#FFB8B8"/>
<path d="M191 98.2716C191 98.2716 201.332 91.9526 206.007 91.9526C210.681 91.9526 215.847 89.4799 216.339 92.5021C216.831 95.5242 221.751 103.492 216.831 102.942C211.911 102.393 207.975 103.217 205.515 102.942C203.054 102.667 191 98.2716 191 98.2716Z" fill="#575A89"/>
<path d="M185.502 170.016C185.502 170.016 181.054 182.868 184.019 183.44C186.985 184.011 203.791 185.439 204.532 184.868C205.274 184.296 207.745 169.445 185.502 170.016Z" fill="#60D06E"/>
<path d="M215.461 176.109C210.263 181.62 213.234 184.1 211.253 188.234C209.273 192.368 194.669 189.061 188.728 180.242C182.787 171.424 181.302 174.731 174.866 173.629C168.43 172.526 162.737 167.29 168.183 164.259C170.671 162.873 173.005 159.993 174.641 156.378C175.847 153.713 176.603 150.823 176.871 147.854C177.059 145.787 176.967 143.699 176.599 141.662C175.609 136.308 177.287 125.734 180.015 116.318C181.943 109.66 184.399 103.581 186.807 100.334C186.951 100.136 187.097 99.9512 187.243 99.7749C193.184 92.61 206.55 97.8459 206.55 97.8459C206.55 97.8459 216.452 106.94 212.986 118.514C210.093 127.87 210.446 138.092 213.976 147.173C216.699 154.063 220.66 170.597 215.461 176.109Z" fill="#575A89"/>
<path d="M176.969 153L174.176 155.042C174.176 155.042 162.75 151.25 163.004 155.042C163.258 158.833 174.938 160 174.938 160L179 156.5L176.969 153Z" fill="#FFB8B8"/>
<path opacity="0.1" d="M190.169 101.365C190.169 101.365 183.22 98.1629 183.337 110.724C183.454 123.285 186.812 138.354 186.812 138.354L177 154.571L180.097 160L200 141.368V115.613C200 115.613 199.041 102.461 190.169 101.365Z" fill="black"/>
<path opacity="0.1" d="M197 114.459V140.611L178.227 158L177 154.94C178.148 152.352 176.887 151.033 177.147 147.976L183.503 137.551C181.988 130.506 180.906 123.351 180.264 116.137C182.175 109.415 184.61 103.277 186.998 100C196.023 101.163 197 114.459 197 114.459Z" fill="black"/>
<path d="M189.169 100.365C189.169 100.365 182.22 97.1629 182.337 109.724C182.454 122.285 185.812 137.354 185.812 137.354L176 153.571L179.097 159L199 140.368V114.613C199 114.613 198.041 101.461 189.169 100.365Z" fill="#575A89"/>
<path d="M208.5 74C214.851 74 220 68.1797 220 61C220 53.8203 214.851 48 208.5 48C202.149 48 197 53.8203 197 61C197 68.1797 202.149 74 208.5 74Z" fill="#2F2E41"/>
<path d="M218.053 71.3683C216.623 72.6056 214.967 73.4148 213.224 73.7285C211.48 74.0421 209.698 73.8509 208.029 73.171C206.359 72.4911 204.85 71.3421 203.627 69.8203C202.404 68.2985 201.503 66.448 201 64.4238C201.19 66.2378 201.693 67.9849 202.476 69.5547C203.258 71.1244 204.304 72.4828 205.547 73.544C206.79 74.6053 208.204 75.3463 209.698 75.7203C211.192 76.0943 212.735 76.0932 214.229 75.7171C215.723 75.3409 217.135 74.5979 218.377 73.5349C219.619 72.4719 220.664 71.1121 221.445 69.5412C222.226 67.9703 222.727 66.2225 222.915 64.4082C223.104 62.5938 222.977 60.7524 222.541 59C222.788 61.3543 222.502 63.7449 221.712 65.9211C220.923 68.0973 219.659 69.9788 218.053 71.3683Z" fill="#2F2E41"/>
<path d="M199 89C203.418 89 207 84.7467 207 79.5C207 74.2533 203.418 70 199 70C194.582 70 191 74.2533 191 79.5C191 84.7467 194.582 89 199 89Z" fill="#2F2E41"/>
<path d="M191.5 83C195.642 83 199 80.0899 199 76.5C199 72.9101 195.642 70 191.5 70C187.358 70 184 72.9101 184 76.5C184 80.0899 187.358 83 191.5 83Z" fill="#2F2E41"/>
<path d="M189.5 86C190.328 86 191 84.6569 191 83C191 81.3431 190.328 80 189.5 80C188.672 80 188 81.3431 188 83C188 84.6569 188.672 86 189.5 86Z" fill="#FFB8B8"/>
<path d="M237.62 279.548C238.425 278.609 239.105 279.048 239.938 279.597C240.772 280.146 241.442 280.597 240.638 281.536C239.833 282.476 237.024 283 237.024 283C237.024 283 236.816 280.488 237.62 279.548Z" fill="#F2F2F2"/>
<path d="M182.338 289.912C181.68 289.027 182.098 288.473 182.618 287.796C183.138 287.12 183.564 286.576 184.221 287.461C184.879 288.346 185 291 185 291C185 291 182.996 290.796 182.338 289.912Z" fill="#F2F2F2"/>
<path opacity="0.1" d="M231.261 292.147C232.289 292.664 232.04 293.494 231.725 294.514C231.409 295.534 231.148 296.358 230.119 295.841C229.091 295.324 228 292.642 228 292.642C228 292.642 230.232 291.63 231.261 292.147Z" fill="black"/>
<path opacity="0.1" d="M188.089 316.264C187.411 317.292 187.022 317.039 186.546 316.72C186.071 316.401 185.689 316.137 186.367 315.11C187.044 314.082 189 313 189 313C189 313 188.766 315.237 188.089 316.264Z" fill="black"/>
<path opacity="0.1" d="M200.392 317.264C199.941 318.292 199.681 318.039 199.364 317.72C199.047 317.401 198.793 317.137 199.245 316.11C199.696 315.082 201 314 201 314C201 314 200.844 316.237 200.392 317.264Z" fill="black"/>
<path opacity="0.1" d="M216.801 310.305C217.22 311.356 216.906 311.561 216.516 311.807C216.126 312.052 215.807 312.245 215.389 311.194C214.97 310.143 215 308 215 308C215 308 216.383 309.253 216.801 310.305Z" fill="black"/>
<path opacity="0.1" d="M210.801 312.305C211.22 313.356 210.906 313.561 210.516 313.807C210.126 314.052 209.807 314.245 209.389 313.194C208.97 312.143 209 310 209 310C209 310 210.383 311.253 210.801 312.305Z" fill="black"/>
<path d="M232.819 269.191C233.808 268.687 234.158 269.261 234.582 269.972C235.007 270.683 235.345 271.263 234.356 271.767C233.367 272.272 231 271.799 231 271.799C231 271.799 231.829 269.696 232.819 269.191Z" fill="#F2F2F2"/>
</svg>
