<svg width="25" height="25" viewBox="0 0 25 25" fill="none" xmlns="http://www.w3.org/2000/svg">
<g clip-path="url(#clip0)">
<path d="M16.9312 8.06877C15.8069 6.94443 14.2196 6.21692 12.5 6.21692C10.7804 6.21692 9.19314 6.91136 8.0688 8.06877C6.94446 9.19311 6.21695 10.7804 6.21695 12.5C6.21695 14.2196 6.94446 15.8069 8.0688 16.9312C9.19314 18.0555 10.7804 18.7831 12.5 18.7831C14.2196 18.7831 15.8069 18.0886 16.9312 16.9312C18.0556 15.8069 18.7831 14.2196 18.7831 12.5C18.7831 10.7804 18.0886 9.19311 16.9312 8.06877ZM15.7408 15.7407C14.914 16.5674 13.7566 17.0635 12.5 17.0635C11.2434 17.0635 10.086 16.5674 9.25928 15.7407C8.43256 14.914 7.93653 13.7566 7.93653 12.5C7.93653 11.2434 8.43256 10.086 9.25928 9.25925C10.086 8.43253 11.2434 7.9365 12.5 7.9365C13.7566 7.9365 14.914 8.43253 15.7408 9.25925C16.5675 10.086 17.0635 11.2434 17.0635 12.5C17.0635 13.7566 16.5675 14.914 15.7408 15.7407Z" fill="black"/>
<path d="M24.1402 11.6402H21.5939C21.131 11.6402 20.7341 12.037 20.7341 12.5C20.7341 12.9629 21.131 13.3598 21.5939 13.3598H24.1402C24.6032 13.3598 25 12.9629 25 12.5C25 12.037 24.6032 11.6402 24.1402 11.6402Z" fill="black"/>
<path d="M12.5 20.7341C12.037 20.7341 11.6402 21.1309 11.6402 21.5939V24.1402C11.6402 24.6032 12.037 25 12.5 25C12.9629 25 13.3598 24.6032 13.3598 24.1402V21.5939C13.3598 21.1309 12.9629 20.7341 12.5 20.7341Z" fill="black"/>
<path d="M21.3294 20.1389L19.5106 18.3201C19.213 17.9894 18.6508 17.9894 18.3201 18.3201C17.9894 18.6508 17.9894 19.1799 18.3201 19.5106L20.1389 21.3294C20.4696 21.66 20.9987 21.66 21.3294 21.3294C21.66 20.9987 21.66 20.4696 21.3294 20.1389Z" fill="black"/>
<path d="M12.5 0C12.037 0 11.6402 0.396825 11.6402 0.859788V3.40608C11.6402 3.86905 12.037 4.26587 12.5 4.26587C12.9629 4.26587 13.3598 3.86905 13.3598 3.40608V0.859788C13.3598 0.396825 12.9629 0 12.5 0Z" fill="black"/>
<path d="M21.3624 3.67065C21.0317 3.33997 20.5026 3.33997 20.172 3.67065L18.3532 5.48944C18.0225 5.82013 18.0225 6.34923 18.3532 6.67991C18.6508 7.0106 19.213 7.0106 19.5437 6.67991L21.3624 4.86113C21.6931 4.53044 21.6931 4.00134 21.3624 3.67065Z" fill="black"/>
<path d="M3.40608 11.6402H0.859788C0.396825 11.6402 0 12.037 0 12.5C0 12.9629 0.363757 13.3598 0.859788 13.3598H3.40608C3.86905 13.3598 4.26587 12.9629 4.26587 12.5C4.26587 12.037 3.86905 11.6402 3.40608 11.6402Z" fill="black"/>
<path d="M6.64683 18.3201C6.34921 17.9894 5.78704 17.9894 5.45636 18.3201L3.63757 20.1389C3.30688 20.4696 3.30688 20.9987 3.63757 21.3294C3.96826 21.66 4.49736 21.66 4.82805 21.3294L6.64683 19.5106C6.97752 19.1799 6.97752 18.6508 6.64683 18.3201Z" fill="black"/>
<path d="M6.64683 5.48944L4.82805 3.67065C4.49736 3.33997 3.96826 3.33997 3.63757 3.67065C3.30688 4.00134 3.30688 4.53044 3.63757 4.86113L5.45636 6.67991C5.78704 7.0106 6.31614 7.0106 6.64683 6.67991C6.97752 6.34923 6.97752 5.82013 6.64683 5.48944Z" fill="black"/>
</g>
<defs>
<clipPath id="clip0">
<rect width="25" height="25" fill="white"/>
</clipPath>
</defs>
</svg>
